<!DOCTYPE svg PUBLIC "-//W3C//DTD SVG 1.1//EN" "http://www.w3.org/Graphics/SVG/1.1/DTD/svg11.dtd">
<!-- Uploaded to: SVG Repo, www.svgrepo.com, Transformed by: SVG Repo Mixer Tools -->
<svg fill="#e99400" height="800px" width="800px" version="1.1" id="Layer_1" xmlns="http://www.w3.org/2000/svg" xmlns:xlink="http://www.w3.org/1999/xlink" viewBox="0 0 512 512" xml:space="preserve" transform="rotate(0)matrix(-1, 0, 0, 1, 0, 0)" stroke="#e99400">
<g id="SVGRepo_bgCarrier" stroke-width="0"/>
<g id="SVGRepo_tracerCarrier" stroke-linecap="round" stroke-linejoin="round"/>
<g id="SVGRepo_iconCarrier"> <g> <g> <path d="M434.087,178.087c-12.478-4.991-24.569-6.969-36.027-6.969c-21.838,0-41.385,7.178-56.992,14.345 c18.445-59.689,54.063-113.115,54.063-113.115c-66.783,0-113.142,7.781-155.826,33.391 c-36.292,21.774-48.914,62.478-53.307,88.166c-14.373-2.932-28.369-4.688-41.302-4.688C22.261,189.217,0,256,0,256 s22.261,66.783,144.696,66.783c12.932,0,26.929-1.756,41.302-4.688c4.393,25.688,17.015,66.391,53.307,88.166 c42.684,25.61,89.043,33.391,155.826,33.391c0,0-45.635-70.122-59.623-109.744c18.892,12.54,48.215,29.367,76.319,37.396 c14.708,4.202,30.742,5.603,45.582,5.603c29.683,0,54.591-5.603,54.591-5.603C512,278.261,489.739,200.348,434.087,178.087z M218.911,199.534c3.034-17.736,11.947-49.786,37.573-65.162c22.561-13.538,47.082-21.646,79.801-25.616 c-9.609,19.463-19.624,42.591-27.12,66.848l-16.854,54.538c-21.484-9.573-47.455-20.016-73.853-27.959L218.911,199.534z M144.696,289.391c-3.696,0-7.328-0.07-10.893-0.207c3.508-10.627,5.328-21.806,5.328-33.184h-33.391 c0,10.21-2.135,20.178-6.215,29.361c-19.546-3.821-35.991-10.317-48.612-19.314c-4.893-3.487-8.658-6.95-11.518-10.047 c2.859-3.098,6.626-6.56,11.518-10.047c21.423-15.272,53.853-23.344,93.784-23.344c35.222,0,83.634,16.499,123.373,33.398 c-1.993,0.852-4.015,1.704-6.066,2.559C213.569,278.732,173.005,289.391,144.696,289.391z M256.484,377.628 c-25.626-15.376-34.539-47.425-37.573-65.161l-0.453-2.651c23.221-6.985,46.107-15.906,65.903-24.469l19.659,55.679 c6.442,18.245,18.214,41.173,29.892,61.922C302.374,398.876,278.497,390.836,256.484,377.628z M421,335.198 c-27.167-7.762-55.925-25.74-67.029-33.111l-43.252-28.708C331.596,263.455,345.043,256,345.043,256s-14.594-8.091-36.982-18.637 l46.94-21.554c11.455-5.26,26.702-11.298,43.058-11.298c8.193,0,15.921,1.498,23.627,4.58 c17.255,6.902,31.038,23.82,40.962,50.286c8.028,21.411,13.148,48.422,15.084,79.204c-6.214,0.552-13.126,0.936-20.323,0.936 C443.278,339.516,431.028,338.064,421,335.198z"/> </g> </g> </g>
</svg>